#N canvas 264 22 1009 656 10;
#X obj 259 52 receive fromGUI;
#X obj 259 74 route list;
#X obj 36 295 route 1 0;
#X obj 72 385 soundpick;
#X msg 34 350 0;
#X obj 133 293 route 1 0;
#X obj 169 383 soundpick;
#X obj 237 291 route 1 0;
#X obj 273 381 soundpick;
#X obj 340 292 route 1 0;
#X obj 376 382 soundpick;
#X obj 444 290 route 1 0;
#X obj 480 380 soundpick;
#X msg 131 348 1;
#X msg 235 346 2;
#X msg 338 347 3;
#X msg 442 345 4;
#X obj 545 287 route 1 0;
#X obj 581 377 soundpick;
#X obj 639 285 route 1 0;
#X obj 675 375 soundpick;
#X obj 734 279 route 1 0;
#X obj 770 369 soundpick;
#X msg 543 342 5;
#X msg 637 340 6;
#X msg 732 334 7;
#X obj 260 100 route /myToggle0 /mySlider0 /myToggle1 /mySlider1 /myToggle2
/mySlider2 /myToggle3 /mySlider3 /myToggle4 /mySlider4 /myToggle5 /mySlider5
/myToggle6 /mySlider6 /myToggle7 /mySlider7;
#X connect 0 0 1 0;
#X connect 1 0 26 0;
#X connect 2 0 4 0;
#X connect 2 0 3 1;
#X connect 2 1 3 1;
#X connect 4 0 3 0;
#X connect 5 0 13 0;
#X connect 5 0 6 1;
#X connect 5 1 6 1;
#X connect 7 0 14 0;
#X connect 7 0 8 1;
#X connect 7 1 8 1;
#X connect 9 0 15 0;
#X connect 9 0 10 1;
#X connect 9 1 10 1;
#X connect 11 0 16 0;
#X connect 11 0 12 1;
#X connect 11 1 12 1;
#X connect 13 0 6 0;
#X connect 14 0 8 0;
#X connect 15 0 10 0;
#X connect 16 0 12 0;
#X connect 17 0 23 0;
#X connect 17 0 18 1;
#X connect 17 1 18 1;
#X connect 19 0 24 0;
#X connect 19 0 20 1;
#X connect 19 1 20 1;
#X connect 21 0 25 0;
#X connect 21 0 22 1;
#X connect 21 1 22 1;
#X connect 23 0 18 0;
#X connect 24 0 20 0;
#X connect 25 0 22 0;
#X connect 26 0 2 0;
#X connect 26 1 3 2;
#X connect 26 2 5 0;
#X connect 26 3 6 2;
#X connect 26 4 7 0;
#X connect 26 5 8 2;
#X connect 26 6 9 0;
#X connect 26 7 10 2;
#X connect 26 8 11 0;
#X connect 26 9 12 2;
#X connect 26 10 17 0;
#X connect 26 11 18 2;
#X connect 26 12 19 0;
#X connect 26 13 20 2;
#X connect 26 14 21 0;
#X connect 26 15 22 2;
