#N canvas 401 22 330 347 10;
#X text 8 7 .anchor.;
#X text 252 136 .anchor.;
#N canvas 132 210 976 286 sound-lover 0;
#X obj 25 42 loadbang;
#X obj 25 130 filepick rec_%s.wav;
#X obj 25 191 soundshot;
#X obj 76 76 loadbang;
#X text 10 8 .anchor.;
#X text 914 255 .anchor.;
#X msg 25 76 1;
#X msg 76 158 1;
#X obj 25 229 spigot;
#X obj 112 214 tgl 15 0 empty \$0-play-latch-one r:0-play-latch-one
17 7 0 10 -262144 -1 -1 0 1;
#X obj 352 214 tgl 15 0 empty \$0-play-latch-two r:0-play-latch-two
17 7 0 10 -262144 -1 -1 0 1;
#X obj 112 174 sel 1;
#X obj 265 42 loadbang;
#X obj 265 130 filepick rec_%s.wav;
#X obj 265 191 soundshot;
#X obj 316 76 loadbang;
#X obj 265 227 spigot;
#X obj 352 174 sel 1;
#X msg 265 76 2;
#X obj 582 214 tgl 15 0 empty \$0-play-latch-three r:0-play-latch-three
17 7 0 10 -262144 -1 -1 0 1;
#X obj 495 42 loadbang;
#X obj 495 130 filepick rec_%s.wav;
#X obj 495 191 soundshot;
#X obj 546 76 loadbang;
#X msg 546 158 1;
#X obj 495 227 spigot;
#X obj 582 174 sel 1;
#X msg 495 76 3;
#X obj 822 214 tgl 15 0 empty \$0-play-latch-four r:0-play-latch-four
17 7 0 10 -262144 -1 -1 0 1;
#X obj 735 42 loadbang;
#X obj 735 130 filepick rec_%s.wav;
#X obj 735 191 soundshot;
#X obj 786 76 loadbang;
#X msg 786 158 1;
#X obj 735 227 spigot;
#X obj 822 174 sel 1;
#X msg 735 76 4;
#X msg 316 158 1;
#X connect 0 0 6 0;
#X connect 1 0 2 0;
#X connect 2 0 8 0;
#X connect 3 0 7 0;
#X connect 6 0 1 0;
#X connect 7 0 2 3;
#X connect 8 0 2 1;
#X connect 9 0 8 1;
#X connect 9 0 11 0;
#X connect 10 0 16 1;
#X connect 10 0 17 0;
#X connect 11 0 2 1;
#X connect 11 1 2 2;
#X connect 12 0 18 0;
#X connect 13 0 14 0;
#X connect 14 0 16 0;
#X connect 15 0 37 0;
#X connect 16 0 14 1;
#X connect 17 0 14 1;
#X connect 17 1 14 2;
#X connect 18 0 13 0;
#X connect 19 0 25 1;
#X connect 19 0 26 0;
#X connect 20 0 27 0;
#X connect 21 0 22 0;
#X connect 22 0 25 0;
#X connect 23 0 24 0;
#X connect 24 0 22 3;
#X connect 25 0 22 1;
#X connect 26 0 22 1;
#X connect 26 1 22 2;
#X connect 27 0 21 0;
#X connect 28 0 34 1;
#X connect 28 0 35 0;
#X connect 29 0 36 0;
#X connect 30 0 31 0;
#X connect 31 0 34 0;
#X connect 32 0 33 0;
#X connect 33 0 31 3;
#X connect 34 0 31 1;
#X connect 35 0 31 1;
#X connect 35 1 31 2;
#X connect 36 0 30 0;
#X connect 37 0 14 3;
#X restore 43 107 pd sound-lover;
#X obj 202 88 dsp;
#X obj 202 30 loadbang;
#X obj 202 50 delay 8000;
#X floatatom 202 108 5 0 0 0 - - -;
#X obj 202 70 tgl 15 0 empty empty empty 17 7 0 10 -262144 -1 -1 1
1;
#X text 41 58 @ printing studio show;
#X text 41 36 dianaband - 2014-11-29;
#N canvas 132 210 976 286 sound-lover 0;
#X obj 25 42 loadbang;
#X obj 25 130 filepick rec_%s.wav;
#X obj 25 191 soundshot;
#X obj 76 76 loadbang;
#X text 10 8 .anchor.;
#X text 914 255 .anchor.;
#X msg 76 158 1;
#X obj 25 229 spigot;
#X obj 112 214 tgl 15 0 empty \$0-play-latch-five r:0-play-latch-five
17 7 0 10 -262144 -1 -1 0 1;
#X obj 352 214 tgl 15 0 empty \$0-play-latch-six r:0-play-latch-six
17 7 0 10 -262144 -1 -1 0 1;
#X obj 112 174 sel 1;
#X obj 265 42 loadbang;
#X obj 265 130 filepick rec_%s.wav;
#X obj 265 191 soundshot;
#X obj 316 76 loadbang;
#X msg 316 158 1;
#X obj 265 227 spigot;
#X obj 352 174 sel 1;
#X obj 582 214 tgl 15 0 empty \$0-play-latch-seven r:0-play-latch-seven
17 7 0 10 -262144 -1 -1 0 1;
#X obj 495 42 loadbang;
#X obj 495 130 filepick rec_%s.wav;
#X obj 495 191 soundshot;
#X obj 546 76 loadbang;
#X obj 495 227 spigot;
#X obj 582 174 sel 1;
#X obj 822 214 tgl 15 0 empty \$0-play-latch-eight r:0-play-latch-eight
17 7 0 10 -262144 -1 -1 0 1;
#X obj 735 42 loadbang;
#X obj 735 130 filepick rec_%s.wav;
#X obj 735 191 soundshot;
#X obj 786 76 loadbang;
#X msg 786 158 1;
#X obj 735 227 spigot;
#X obj 822 174 sel 1;
#X msg 25 76 5;
#X msg 265 76 6;
#X msg 495 76 7;
#X msg 735 76 8;
#X msg 546 158 1;
#X connect 0 0 33 0;
#X connect 1 0 2 0;
#X connect 2 0 7 0;
#X connect 3 0 6 0;
#X connect 6 0 2 3;
#X connect 7 0 2 1;
#X connect 8 0 7 1;
#X connect 8 0 10 0;
#X connect 9 0 16 1;
#X connect 9 0 17 0;
#X connect 10 0 2 1;
#X connect 10 1 2 2;
#X connect 11 0 34 0;
#X connect 12 0 13 0;
#X connect 13 0 16 0;
#X connect 14 0 15 0;
#X connect 15 0 13 3;
#X connect 16 0 13 1;
#X connect 17 0 13 1;
#X connect 17 1 13 2;
#X connect 18 0 23 1;
#X connect 18 0 24 0;
#X connect 19 0 35 0;
#X connect 20 0 21 0;
#X connect 21 0 23 0;
#X connect 22 0 37 0;
#X connect 23 0 21 1;
#X connect 24 0 21 1;
#X connect 24 1 21 2;
#X connect 25 0 31 1;
#X connect 25 0 32 0;
#X connect 26 0 36 0;
#X connect 27 0 28 0;
#X connect 28 0 31 0;
#X connect 29 0 30 0;
#X connect 30 0 28 3;
#X connect 31 0 28 1;
#X connect 32 0 28 1;
#X connect 32 1 28 2;
#X connect 33 0 1 0;
#X connect 34 0 12 0;
#X connect 35 0 20 0;
#X connect 36 0 27 0;
#X connect 37 0 21 3;
#X restore 43 127 pd sound-lover;
#N canvas 428 22 522 702 arduino-firmata 1;
#X text 442 1070 .anchor.;
#X text 5 2 .anchor.;
#X msg 30 166 devices;
#X obj 20 34 loadbang;
#X obj 20 58 delay 4000;
#X text 162 121 for test @ Mac;
#X text 162 81 for real @ RPi;
#X obj 20 200 arduino;
#X obj 20 424 route analog digital;
#X msg 283 183 info;
#X obj 59 223 route open;
#X obj 59 246 route 1;
#X obj 283 263 print [arduino]wasn't_opend;
#X obj 283 240 tgl 15 0 isopend empty isopend? 17 7 0 10 -262144 -1
-1 1 1;
#X msg 86 166 close;
#N canvas 706 289 304 216 pinsetup 0;
#X msg 60 117 pinMode \$1 input;
#X text 196 118 input pins;
#X text 4 3 .anchor.;
#X text 241 180 .anchor.;
#X obj 33 33 inlet;
#X obj 33 173 outlet;
#X msg 33 145 digital \$1 1;
#X msg 33 61 2 \, 3 \, 4 \, 5 \, 6 \, 7 \, 8 \, 9 \, 10 \, 11 \, 12
\, 14;
#X obj 33 89 t a a;
#X text 200 143 pull-ups;
#X connect 0 0 5 0;
#X connect 4 0 7 0;
#X connect 6 0 5 0;
#X connect 7 0 8 0;
#X connect 8 0 6 0;
#X connect 8 1 0 0;
#X restore 59 269 pd pinsetup;
#X obj 283 119 bng 15 250 50 0 empty empty empty 17 7 0 10 -262144
-1 -1;
#X obj 20 389 spigot;
#X obj 59 363 tgl 15 0 empty empty empty 17 7 0 10 -262144 -1 -1 1
1;
#X obj 283 286 print [arduino]pinsetup_msg.;
#X obj 283 149 delay 2000;
#X msg 59 339 1;
#X obj 59 293 bng 15 250 50 0 empty empty empty 17 7 0 10 -262144 -1
-1;
#X obj 59 315 delay 2000;
#X floatatom 94 558 5 0 0 0 - - -;
#X floatatom 78 508 5 0 0 0 - - -;
#X msg 20 102 devicename /dev/ttyUSB0;
#X obj 78 452 resmpl 50;
#X floatatom 110 608 5 0 0 0 - - -;
#X obj 98 74 spigot;
#X obj 161 37 loadbang;
#X msg 161 57 1;
#X msg 131 54 0;
#X obj 98 34 t b a;
#X text 220 44 automatic one more trial..;
#X floatatom 143 558 5 0 0 0 - - -;
#X floatatom 126 508 5 0 0 0 - - -;
#X floatatom 159 608 5 0 0 0 - - -;
#X floatatom 191 558 5 0 0 0 - - -;
#X floatatom 175 508 5 0 0 0 - - -;
#X floatatom 208 608 5 0 0 0 - - -;
#X floatatom 240 558 5 0 0 0 - - -;
#X floatatom 224 508 5 0 0 0 - - -;
#X floatatom 256 608 5 0 0 0 - - -;
#X obj 78 480 route 2 3 4 5 6 7 8 9 10 11 12 14;
#X obj 78 533 change;
#X obj 126 533 change;
#X obj 175 533 change;
#X obj 224 533 change;
#X obj 94 583 change;
#X obj 143 583 change;
#X obj 191 583 change;
#X obj 240 583 change;
#X obj 208 633 change;
#X obj 256 633 change;
#X msg 30 138 devicename /dev/tty.usbserial-10GP0125;
#X obj 143 770 tgl 15 0 \$0-play-latch-five empty s:0-play-latch-five
17 7 0 10 -262144 -1 -1 0 1;
#X obj 159 820 tgl 15 0 \$0-play-latch-six empty s:0-play-latch-six
17 7 0 10 -262144 -1 -1 0 1;
#X obj 175 880 tgl 15 0 \$0-play-latch-seven empty s:0-play-latch-seven
17 7 0 10 -262144 -1 -1 0 1;
#X obj 191 930 tgl 15 0 \$0-play-latch-eight empty s:0-play-latch-eight
17 7 0 10 -262144 -1 -1 0 1;
#X obj 110 633 change;
#X obj 159 633 change;
#X obj 78 700 tgl 15 0 \$0-play-latch-one empty s:0-play-latch-one
17 7 0 10 -262144 -1 -1 0 1;
#X obj 94 750 tgl 15 0 \$0-play-latch-two empty s:0-play-latch-two
17 7 0 10 -262144 -1 -1 0 1;
#X obj 110 800 tgl 15 0 \$0-play-latch-three empty s:0-play-latch-three
17 7 0 10 -262144 -1 -1 0 1;
#X obj 126 720 tgl 15 0 \$0-play-latch-four empty s:0-play-latch-four
17 7 0 10 -262144 -1 -1 0 1;
#X obj 208 980 tgl 15 0 \$0-play-latch-nine empty s:0-play-latch-nine
17 7 0 10 -262144 -1 -1 0 1;
#X obj 224 900 tgl 15 0 \$0-play-latch-ten empty s:0-play-latch-ten
17 7 0 10 -262144 -1 -1 0 1;
#X obj 240 950 tgl 15 0 \$0-play-latch-eleven empty s:0-play-latch-eleven
17 7 0 10 -262144 -1 -1 0 1;
#X obj 256 1000 tgl 15 0 \$0-play-latch-twelve empty s:0-play-latch-twelve
17 7 0 10 -262144 -1 -1 0 1;
#X connect 2 0 7 0;
#X connect 3 0 4 0;
#X connect 4 0 26 0;
#X connect 7 0 17 0;
#X connect 7 1 10 0;
#X connect 8 1 27 0;
#X connect 9 0 7 0;
#X connect 10 0 11 0;
#X connect 10 0 13 0;
#X connect 11 0 15 0;
#X connect 11 1 12 0;
#X connect 11 1 33 0;
#X connect 14 0 7 0;
#X connect 15 0 7 0;
#X connect 15 0 19 0;
#X connect 15 0 22 0;
#X connect 16 0 20 0;
#X connect 17 0 8 0;
#X connect 18 0 17 1;
#X connect 20 0 9 0;
#X connect 21 0 18 0;
#X connect 22 0 23 0;
#X connect 23 0 21 0;
#X connect 24 0 49 0;
#X connect 25 0 45 0;
#X connect 26 0 7 0;
#X connect 26 0 16 0;
#X connect 27 0 44 0;
#X connect 28 0 60 0;
#X connect 29 0 55 0;
#X connect 30 0 31 0;
#X connect 31 0 29 1;
#X connect 32 0 29 1;
#X connect 33 0 32 0;
#X connect 33 1 29 0;
#X connect 35 0 50 0;
#X connect 36 0 46 0;
#X connect 37 0 61 0;
#X connect 38 0 51 0;
#X connect 39 0 47 0;
#X connect 40 0 53 0;
#X connect 41 0 52 0;
#X connect 42 0 48 0;
#X connect 43 0 54 0;
#X connect 44 0 25 0;
#X connect 44 1 24 0;
#X connect 44 2 28 0;
#X connect 44 3 36 0;
#X connect 44 4 35 0;
#X connect 44 5 37 0;
#X connect 44 6 39 0;
#X connect 44 7 38 0;
#X connect 44 8 40 0;
#X connect 44 9 42 0;
#X connect 44 10 41 0;
#X connect 44 11 43 0;
#X connect 45 0 62 0;
#X connect 46 0 65 0;
#X connect 47 0 58 0;
#X connect 48 0 67 0;
#X connect 49 0 63 0;
#X connect 50 0 56 0;
#X connect 51 0 59 0;
#X connect 52 0 68 0;
#X connect 53 0 66 0;
#X connect 54 0 69 0;
#X connect 55 0 7 0;
#X connect 55 0 16 0;
#X connect 60 0 64 0;
#X connect 61 0 57 0;
#X restore 43 87 pd arduino-firmata;
#N canvas 132 210 976 286 sound-lover 0;
#X obj 25 42 loadbang;
#X obj 25 130 filepick rec_%s.wav;
#X obj 25 191 soundshot;
#X obj 76 76 loadbang;
#X text 10 8 .anchor.;
#X text 914 255 .anchor.;
#X msg 76 158 1;
#X obj 25 229 spigot;
#X obj 112 214 tgl 15 0 empty \$0-play-latch-nine r:0-play-latch-nine
17 7 0 10 -262144 -1 -1 0 1;
#X obj 352 214 tgl 15 0 empty \$0-play-latch-ten r:0-play-latch-ten
17 7 0 10 -262144 -1 -1 0 1;
#X obj 112 174 sel 1;
#X obj 265 42 loadbang;
#X obj 265 130 filepick rec_%s.wav;
#X obj 265 191 soundshot;
#X obj 316 76 loadbang;
#X msg 316 158 1;
#X obj 265 227 spigot;
#X obj 352 174 sel 1;
#X obj 582 214 tgl 15 0 empty \$0-play-latch-eleven r:0-play-latch-eleven
17 7 0 10 -262144 -1 -1 0 1;
#X obj 495 42 loadbang;
#X obj 495 130 filepick rec_%s.wav;
#X obj 495 191 soundshot;
#X obj 546 76 loadbang;
#X obj 495 227 spigot;
#X obj 582 174 sel 1;
#X obj 822 214 tgl 15 0 empty \$0-play-latch-twelve r:0-play-latch-twelve
17 7 0 10 -262144 -1 -1 0 1;
#X obj 735 42 loadbang;
#X obj 735 130 filepick rec_%s.wav;
#X obj 735 191 soundshot;
#X obj 786 76 loadbang;
#X msg 786 158 1;
#X obj 735 227 spigot;
#X obj 822 174 sel 1;
#X msg 25 76 9;
#X msg 265 76 10;
#X msg 495 76 11;
#X msg 735 76 12;
#X msg 546 158 1;
#X connect 0 0 33 0;
#X connect 1 0 2 0;
#X connect 2 0 7 0;
#X connect 3 0 6 0;
#X connect 6 0 2 3;
#X connect 7 0 2 1;
#X connect 8 0 7 1;
#X connect 8 0 10 0;
#X connect 9 0 16 1;
#X connect 9 0 17 0;
#X connect 10 0 2 1;
#X connect 10 1 2 2;
#X connect 11 0 34 0;
#X connect 12 0 13 0;
#X connect 13 0 16 0;
#X connect 14 0 15 0;
#X connect 15 0 13 3;
#X connect 16 0 13 1;
#X connect 17 0 13 1;
#X connect 17 1 13 2;
#X connect 18 0 23 1;
#X connect 18 0 24 0;
#X connect 19 0 35 0;
#X connect 20 0 21 0;
#X connect 21 0 23 0;
#X connect 22 0 37 0;
#X connect 23 0 21 1;
#X connect 24 0 21 1;
#X connect 24 1 21 2;
#X connect 25 0 31 1;
#X connect 25 0 32 0;
#X connect 26 0 36 0;
#X connect 27 0 28 0;
#X connect 28 0 31 0;
#X connect 29 0 30 0;
#X connect 30 0 28 3;
#X connect 31 0 28 1;
#X connect 32 0 28 1;
#X connect 32 1 28 2;
#X connect 33 0 1 0;
#X connect 34 0 12 0;
#X connect 35 0 20 0;
#X connect 36 0 27 0;
#X connect 37 0 21 3;
#X restore 43 147 pd sound-lover;
#X connect 3 0 6 0;
#X connect 4 0 5 0;
#X connect 5 0 7 0;
#X connect 7 0 3 0;
