#N canvas 458 116 279 268 10;
#X text 8 7 .anchor.;
#X text 212 234 .anchor.;
#N canvas 222 94 625 702 arduino-firmata 1;
#X text 559 735 .anchor.;
#X text 5 2 .anchor.;
#X msg 30 166 devices;
#X obj 20 34 loadbang;
#X obj 20 58 delay 4000;
#X text 162 121 for test @ Mac;
#X text 162 81 for real @ RPi;
#X obj 20 200 arduino;
#X obj 20 424 route analog digital;
#X msg 283 183 info;
#X obj 59 223 route open;
#X obj 59 246 route 1;
#X obj 283 263 print [arduino]wasn't_opend;
#X obj 283 240 tgl 15 0 isopend empty isopend? 17 7 0 10 -262144 -1
-1 1 1;
#X msg 86 166 close;
#N canvas 706 289 304 216 pinsetup 0;
#X msg 60 117 pinMode \$1 input;
#X text 196 118 input pins;
#X text 4 3 .anchor.;
#X text 241 180 .anchor.;
#X obj 33 33 inlet;
#X obj 33 173 outlet;
#X msg 33 145 digital \$1 1;
#X msg 33 61 2 \, 3 \, 4 \, 5 \, 6 \, 7 \, 8 \, 9 \, 10 \, 11 \, 12
\, 14;
#X obj 33 89 t a a;
#X text 200 143 pull-ups;
#X connect 0 0 5 0;
#X connect 4 0 7 0;
#X connect 6 0 5 0;
#X connect 7 0 8 0;
#X connect 8 0 6 0;
#X connect 8 1 0 0;
#X restore 59 269 pd pinsetup;
#X obj 283 119 bng 15 250 50 0 empty empty empty 17 7 0 10 -262144
-1 -1;
#X obj 20 389 spigot;
#X obj 59 363 tgl 15 0 empty empty empty 17 7 0 10 -262144 -1 -1 1
1;
#X obj 283 286 print [arduino]pinsetup_msg.;
#X obj 283 149 delay 2000;
#X msg 59 339 1;
#X obj 59 293 bng 15 250 50 0 empty empty empty 17 7 0 10 -262144 -1
-1;
#X obj 59 315 delay 2000;
#X text 333 520 dispatching commands;
#X msg 20 102 devicename /dev/ttyUSB0;
#X obj 98 74 spigot;
#X obj 161 37 loadbang;
#X msg 161 57 1;
#X msg 131 54 0;
#X obj 98 34 t b a;
#X text 220 44 automatic one more trial..;
#X msg 30 138 devicename /dev/tty.usbserial-14CP0031;
#X obj 355 552 change;
#X obj 403 552 change;
#X obj 452 552 change;
#X obj 501 552 change;
#X obj 371 602 change;
#X obj 420 602 change;
#X obj 468 602 change;
#X obj 517 602 change;
#X obj 387 652 change;
#X obj 436 652 change;
#X obj 485 652 change;
#X obj 533 652 change;
#X text 425 687 NO debouncing WE USE IT.;
#X obj 78 601 s c1;
#X obj 88 621 s c2;
#X obj 98 641 s c3;
#X obj 108 661 s c4;
#X obj 118 681 s c5;
#X obj 128 701 s c6;
#X obj 198 601 s c7;
#X obj 208 621 s c8;
#X obj 218 641 s c9;
#X obj 228 661 s c10;
#X obj 238 681 s c11;
#X obj 248 701 s c12;
#X obj 78 480 route 14 12 11 10 9 8 7 6 5 4 3 2;
#X floatatom 27 557 5 0 0 0 - - -, f 5;
#X floatatom 22 516 5 0 0 0 - - -, f 5;
#X obj 78 508 resmpl 50;
#X obj 88 528 resmpl 50;
#X obj 98 548 resmpl 50;
#X obj 108 568 resmpl 50;
#X obj 118 588 resmpl 50;
#X obj 128 608 resmpl 50;
#X obj 198 508 resmpl 50;
#X obj 208 528 resmpl 50;
#X obj 218 548 resmpl 50;
#X obj 228 568 resmpl 50;
#X obj 238 588 resmpl 50;
#X obj 248 608 resmpl 50;
#X connect 2 0 7 0;
#X connect 3 0 4 0;
#X connect 4 0 25 0;
#X connect 7 0 17 0;
#X connect 7 1 10 0;
#X connect 8 1 58 0;
#X connect 9 0 7 0;
#X connect 10 0 11 0;
#X connect 10 0 13 0;
#X connect 11 0 15 0;
#X connect 11 1 12 0;
#X connect 11 1 30 0;
#X connect 14 0 7 0;
#X connect 15 0 7 0;
#X connect 15 0 19 0;
#X connect 15 0 22 0;
#X connect 16 0 20 0;
#X connect 17 0 8 0;
#X connect 18 0 17 1;
#X connect 20 0 9 0;
#X connect 21 0 18 0;
#X connect 22 0 23 0;
#X connect 23 0 21 0;
#X connect 25 0 7 0;
#X connect 25 0 16 0;
#X connect 26 0 32 0;
#X connect 27 0 28 0;
#X connect 28 0 26 1;
#X connect 29 0 26 1;
#X connect 30 0 29 0;
#X connect 30 1 26 0;
#X connect 32 0 7 0;
#X connect 32 0 16 0;
#X connect 58 0 60 0;
#X connect 58 0 61 0;
#X connect 58 1 62 0;
#X connect 58 2 63 0;
#X connect 58 3 64 0;
#X connect 58 4 65 0;
#X connect 58 5 66 0;
#X connect 58 6 67 0;
#X connect 58 7 68 0;
#X connect 58 8 69 0;
#X connect 58 9 70 0;
#X connect 58 10 71 0;
#X connect 58 11 72 0;
#X connect 61 0 46 0;
#X connect 61 0 59 0;
#X connect 62 0 47 0;
#X connect 63 0 48 0;
#X connect 64 0 49 0;
#X connect 65 0 50 0;
#X connect 66 0 51 0;
#X connect 67 0 52 0;
#X connect 68 0 53 0;
#X connect 69 0 54 0;
#X connect 70 0 55 0;
#X connect 71 0 56 0;
#X connect 72 0 57 0;
#X restore 33 117 pd arduino-firmata;
#N canvas 457 50 1225 702 sound-lover 0;
#X text 10 8 .anchor.;
#X floatatom 74 164 5 0 0 0 - - -, f 5;
#X obj 74 107 bng 15 250 50 0 empty empty empty 17 7 0 10 -262144 -1
-1;
#X floatatom 154 179 5 0 0 0 - - -, f 5;
#X obj 154 122 bng 15 250 50 0 empty empty empty 17 7 0 10 -262144
-1 -1;
#X obj 74 193 s mavg;
#X obj 154 206 s amp;
#X obj 135 499 mavg;
#X obj 156 473 r mavg;
#X obj 135 443 *;
#X obj 135 384 r c1;
#X obj 150 416 r amp;
#X obj 60 499 osc~;
#X obj 27 429 mtof;
#X floatatom 27 459 15 0 0 0 - - -, f 15;
#X obj 250 533 *~;
#X obj 325 499 mavg;
#X obj 346 473 r mavg;
#X obj 325 443 *;
#X obj 340 416 r amp;
#X obj 250 499 osc~;
#X obj 250 593 dac~;
#X obj 217 429 mtof;
#X floatatom 217 459 15 0 0 0 - - -, f 15;
#X obj 430 533 *~;
#X obj 505 499 mavg;
#X obj 526 473 r mavg;
#X obj 505 443 *;
#X obj 520 416 r amp;
#X obj 430 499 osc~;
#X obj 430 593 dac~;
#X obj 397 429 mtof;
#X floatatom 397 459 15 0 0 0 - - -, f 15;
#X obj 610 533 *~;
#X obj 685 499 mavg;
#X obj 706 473 r mavg;
#X obj 685 443 *;
#X obj 700 416 r amp;
#X obj 610 499 osc~;
#X obj 610 593 dac~;
#X obj 577 429 mtof;
#X floatatom 577 459 15 0 0 0 - - -, f 15;
#X obj 790 533 *~;
#X obj 865 499 mavg;
#X obj 886 473 r mavg;
#X obj 865 443 *;
#X obj 880 416 r amp;
#X obj 790 499 osc~;
#X obj 790 593 dac~;
#X obj 757 429 mtof;
#X floatatom 757 459 15 0 0 0 - - -, f 15;
#X obj 970 533 *~;
#X obj 1045 499 mavg;
#X obj 1066 473 r mavg;
#X obj 1045 443 *;
#X obj 1060 416 r amp;
#X obj 970 499 osc~;
#X obj 970 593 dac~;
#X obj 937 429 mtof;
#X floatatom 937 459 15 0 0 0 - - -, f 15;
#X obj 60 853 *~;
#X obj 135 819 mavg;
#X obj 156 793 r mavg;
#X obj 135 763 *;
#X obj 150 736 r amp;
#X obj 60 819 osc~;
#X obj 60 913 dac~;
#X obj 27 749 mtof;
#X floatatom 27 779 15 0 0 0 - - -, f 15;
#X obj 250 853 *~;
#X obj 325 819 mavg;
#X obj 346 793 r mavg;
#X obj 325 763 *;
#X obj 340 736 r amp;
#X obj 250 819 osc~;
#X obj 250 913 dac~;
#X obj 217 749 mtof;
#X floatatom 217 779 15 0 0 0 - - -, f 15;
#X obj 430 853 *~;
#X obj 505 819 mavg;
#X obj 526 793 r mavg;
#X obj 505 763 *;
#X obj 520 736 r amp;
#X obj 430 819 osc~;
#X obj 430 913 dac~;
#X obj 397 749 mtof;
#X floatatom 397 779 15 0 0 0 - - -, f 15;
#X obj 610 853 *~;
#X obj 685 819 mavg;
#X obj 706 793 r mavg;
#X obj 685 763 *;
#X obj 700 736 r amp;
#X obj 610 819 osc~;
#X obj 610 913 dac~;
#X obj 577 749 mtof;
#X floatatom 577 779 15 0 0 0 - - -, f 15;
#X obj 790 853 *~;
#X obj 865 819 mavg;
#X obj 886 793 r mavg;
#X obj 865 763 *;
#X obj 880 736 r amp;
#X obj 790 819 osc~;
#X obj 790 913 dac~;
#X obj 757 749 mtof;
#X floatatom 757 779 15 0 0 0 - - -, f 15;
#X obj 970 853 *~;
#X obj 1045 819 mavg;
#X obj 1066 793 r mavg;
#X obj 1045 763 *;
#X obj 1060 736 r amp;
#X obj 970 819 osc~;
#X obj 970 913 dac~;
#X obj 937 749 mtof;
#X floatatom 937 779 15 0 0 0 - - -, f 15;
#X obj 693 90 loadbang;
#X obj 693 113 bng 15 250 50 0 empty empty empty 17 7 0 10 -262144
-1 -1;
#X obj 693 134 f \$0;
#X text 734 107 message for init. array :;
#X text 733 121 (array_name start_idx data);
#X text 736 137 check -> all_about_arrays.pd;
#X obj 325 384 r c2;
#X obj 505 384 r c3;
#X obj 685 384 r c4;
#X obj 865 384 r c5;
#X obj 1045 384 r c6;
#X obj 135 704 r c7;
#X obj 325 704 r c8;
#X obj 505 704 r c9;
#X obj 685 704 r c10;
#X obj 865 704 r c11;
#X obj 1045 704 r c12;
#X obj 27 401 tabread \$0-tone;
#X obj 693 199 table \$0-tone;
#X obj 217 401 tabread \$0-tone;
#X obj 397 401 tabread \$0-tone;
#X obj 577 401 tabread \$0-tone;
#X obj 757 401 tabread \$0-tone;
#X obj 937 401 tabread \$0-tone;
#X floatatom 65 430 5 0 0 0 - - -, f 5;
#X floatatom 255 430 5 0 0 0 - - -, f 5;
#X floatatom 435 430 5 0 0 0 - - -, f 5;
#X floatatom 615 430 5 0 0 0 - - -, f 5;
#X floatatom 795 430 5 0 0 0 - - -, f 5;
#X floatatom 975 430 5 0 0 0 - - -, f 5;
#X obj 27 313 loadbang;
#X obj 27 343 delay 1000;
#X obj 217 313 loadbang;
#X obj 217 343 delay 1000;
#X obj 397 313 loadbang;
#X obj 397 343 delay 1000;
#X obj 577 313 loadbang;
#X obj 577 343 delay 1000;
#X obj 757 313 loadbang;
#X obj 757 343 delay 1000;
#X obj 937 313 loadbang;
#X obj 937 343 delay 1000;
#X obj 27 371 0;
#X obj 217 371 1;
#X obj 397 371 2;
#X obj 577 371 3;
#X obj 757 371 4;
#X obj 937 371 5;
#X obj 27 721 tabread \$0-tone;
#X obj 217 721 tabread \$0-tone;
#X obj 397 721 tabread \$0-tone;
#X obj 577 721 tabread \$0-tone;
#X obj 757 721 tabread \$0-tone;
#X obj 937 721 tabread \$0-tone;
#X floatatom 65 750 5 0 0 0 - - -, f 5;
#X floatatom 255 750 5 0 0 0 - - -, f 5;
#X floatatom 435 750 5 0 0 0 - - -, f 5;
#X floatatom 615 750 5 0 0 0 - - -, f 5;
#X floatatom 795 750 5 0 0 0 - - -, f 5;
#X floatatom 975 750 5 0 0 0 - - -, f 5;
#X obj 27 633 loadbang;
#X obj 27 663 delay 1000;
#X obj 217 633 loadbang;
#X obj 217 663 delay 1000;
#X obj 397 633 loadbang;
#X obj 397 663 delay 1000;
#X obj 577 633 loadbang;
#X obj 577 663 delay 1000;
#X obj 757 633 loadbang;
#X obj 757 663 delay 1000;
#X obj 937 633 loadbang;
#X obj 937 663 delay 1000;
#X obj 27 691 6;
#X obj 217 691 7;
#X obj 397 691 8;
#X obj 577 691 9;
#X obj 757 691 10;
#X obj 937 691 11;
#X obj 60 593 dac~;
#X obj 60 563 *~;
#X obj 250 563 *~;
#X obj 430 563 *~;
#X obj 610 563 *~;
#X obj 790 563 *~;
#X obj 970 563 *~;
#X obj 60 883 *~;
#X obj 250 883 *~;
#X obj 430 883 *~;
#X obj 610 883 *~;
#X obj 790 883 *~;
#X obj 970 883 *~;
#X obj 135 546 r vol_master;
#X obj 325 546 r vol_master;
#X obj 505 546 r vol_master;
#X obj 685 546 r vol_master;
#X obj 865 546 r vol_master;
#X obj 1045 546 r vol_master;
#X obj 135 866 r vol_master;
#X obj 325 866 r vol_master;
#X obj 505 866 r vol_master;
#X obj 685 866 r vol_master;
#X obj 865 866 r vol_master;
#X obj 1045 866 r vol_master;
#X obj 393 171 s vol_master;
#X text 388 42 master volume control (init == 0 \, with delay vol.
up);
#X obj 393 141 line;
#X obj 493 160 vsl 25 50 0 2 0 0 empty empty Master_volume 0 -9 0 10
-262144 -1 -1 1225 1;
#X obj 393 85 tgl 15 0 empty isopend isopend? 17 7 0 10 -262144 -1
-1 1 1;
#X obj 60 533 *~;
#X obj 74 80 loadbang;
#X text 59 39 tone parameters;
#X msg 693 158 \; \$1-tone 0 60 61 62 63 64 65 66 67 68 69 70 71 72
73 74;
#X msg 154 149 0.15;
#X msg 74 135 3;
#X msg 393 111 0.5 1000;
#X text 1148 951 .anchor.;
#X connect 1 0 5 0;
#X connect 2 0 227 0;
#X connect 2 0 4 0;
#X connect 3 0 6 0;
#X connect 4 0 226 0;
#X connect 7 0 222 1;
#X connect 8 0 7 1;
#X connect 9 0 7 0;
#X connect 10 0 9 0;
#X connect 11 0 9 1;
#X connect 12 0 222 0;
#X connect 13 0 14 0;
#X connect 14 0 12 0;
#X connect 15 0 194 0;
#X connect 16 0 15 1;
#X connect 17 0 16 1;
#X connect 18 0 16 0;
#X connect 19 0 18 1;
#X connect 20 0 15 0;
#X connect 22 0 23 0;
#X connect 23 0 20 0;
#X connect 24 0 195 0;
#X connect 25 0 24 1;
#X connect 26 0 25 1;
#X connect 27 0 25 0;
#X connect 28 0 27 1;
#X connect 29 0 24 0;
#X connect 31 0 32 0;
#X connect 32 0 29 0;
#X connect 33 0 196 0;
#X connect 34 0 33 1;
#X connect 35 0 34 1;
#X connect 36 0 34 0;
#X connect 37 0 36 1;
#X connect 38 0 33 0;
#X connect 40 0 41 0;
#X connect 41 0 38 0;
#X connect 42 0 197 0;
#X connect 43 0 42 1;
#X connect 44 0 43 1;
#X connect 45 0 43 0;
#X connect 46 0 45 1;
#X connect 47 0 42 0;
#X connect 49 0 50 0;
#X connect 50 0 47 0;
#X connect 51 0 198 0;
#X connect 52 0 51 1;
#X connect 53 0 52 1;
#X connect 54 0 52 0;
#X connect 55 0 54 1;
#X connect 56 0 51 0;
#X connect 58 0 59 0;
#X connect 59 0 56 0;
#X connect 60 0 199 0;
#X connect 61 0 60 1;
#X connect 62 0 61 1;
#X connect 63 0 61 0;
#X connect 64 0 63 1;
#X connect 65 0 60 0;
#X connect 67 0 68 0;
#X connect 68 0 65 0;
#X connect 69 0 200 0;
#X connect 70 0 69 1;
#X connect 71 0 70 1;
#X connect 72 0 70 0;
#X connect 73 0 72 1;
#X connect 74 0 69 0;
#X connect 76 0 77 0;
#X connect 77 0 74 0;
#X connect 78 0 201 0;
#X connect 79 0 78 1;
#X connect 80 0 79 1;
#X connect 81 0 79 0;
#X connect 82 0 81 1;
#X connect 83 0 78 0;
#X connect 85 0 86 0;
#X connect 86 0 83 0;
#X connect 87 0 202 0;
#X connect 88 0 87 1;
#X connect 89 0 88 1;
#X connect 90 0 88 0;
#X connect 91 0 90 1;
#X connect 92 0 87 0;
#X connect 94 0 95 0;
#X connect 95 0 92 0;
#X connect 96 0 203 0;
#X connect 97 0 96 1;
#X connect 98 0 97 1;
#X connect 99 0 97 0;
#X connect 100 0 99 1;
#X connect 101 0 96 0;
#X connect 103 0 104 0;
#X connect 104 0 101 0;
#X connect 105 0 204 0;
#X connect 106 0 105 1;
#X connect 107 0 106 1;
#X connect 108 0 106 0;
#X connect 109 0 108 1;
#X connect 110 0 105 0;
#X connect 112 0 113 0;
#X connect 113 0 110 0;
#X connect 114 0 115 0;
#X connect 115 0 116 0;
#X connect 116 0 225 0;
#X connect 120 0 18 0;
#X connect 121 0 27 0;
#X connect 122 0 36 0;
#X connect 123 0 45 0;
#X connect 124 0 54 0;
#X connect 125 0 63 0;
#X connect 126 0 72 0;
#X connect 127 0 81 0;
#X connect 128 0 90 0;
#X connect 129 0 99 0;
#X connect 130 0 108 0;
#X connect 131 0 13 0;
#X connect 131 0 138 0;
#X connect 133 0 22 0;
#X connect 133 0 139 0;
#X connect 134 0 31 0;
#X connect 134 0 140 0;
#X connect 135 0 40 0;
#X connect 135 0 141 0;
#X connect 136 0 49 0;
#X connect 136 0 142 0;
#X connect 137 0 58 0;
#X connect 137 0 143 0;
#X connect 144 0 145 0;
#X connect 145 0 156 0;
#X connect 146 0 147 0;
#X connect 147 0 157 0;
#X connect 148 0 149 0;
#X connect 149 0 158 0;
#X connect 150 0 151 0;
#X connect 151 0 159 0;
#X connect 152 0 153 0;
#X connect 153 0 160 0;
#X connect 154 0 155 0;
#X connect 155 0 161 0;
#X connect 156 0 131 0;
#X connect 157 0 133 0;
#X connect 158 0 134 0;
#X connect 159 0 135 0;
#X connect 160 0 136 0;
#X connect 161 0 137 0;
#X connect 162 0 168 0;
#X connect 162 0 67 0;
#X connect 163 0 169 0;
#X connect 163 0 76 0;
#X connect 164 0 170 0;
#X connect 164 0 85 0;
#X connect 165 0 171 0;
#X connect 165 0 94 0;
#X connect 166 0 172 0;
#X connect 166 0 103 0;
#X connect 167 0 173 0;
#X connect 167 0 112 0;
#X connect 174 0 175 0;
#X connect 175 0 186 0;
#X connect 176 0 177 0;
#X connect 177 0 187 0;
#X connect 178 0 179 0;
#X connect 179 0 188 0;
#X connect 180 0 181 0;
#X connect 181 0 189 0;
#X connect 182 0 183 0;
#X connect 183 0 190 0;
#X connect 184 0 185 0;
#X connect 185 0 191 0;
#X connect 186 0 162 0;
#X connect 187 0 163 0;
#X connect 188 0 164 0;
#X connect 189 0 165 0;
#X connect 190 0 166 0;
#X connect 191 0 167 0;
#X connect 193 0 192 0;
#X connect 193 0 192 1;
#X connect 194 0 21 0;
#X connect 194 0 21 1;
#X connect 195 0 30 0;
#X connect 195 0 30 1;
#X connect 196 0 39 0;
#X connect 196 0 39 1;
#X connect 197 0 48 0;
#X connect 197 0 48 1;
#X connect 198 0 57 0;
#X connect 198 0 57 1;
#X connect 199 0 66 0;
#X connect 199 0 66 1;
#X connect 200 0 75 0;
#X connect 200 0 75 1;
#X connect 201 0 84 0;
#X connect 201 0 84 1;
#X connect 202 0 93 0;
#X connect 202 0 93 1;
#X connect 203 0 102 0;
#X connect 203 0 102 1;
#X connect 204 0 111 0;
#X connect 204 0 111 1;
#X connect 205 0 193 1;
#X connect 206 0 194 1;
#X connect 207 0 195 1;
#X connect 208 0 196 1;
#X connect 209 0 197 1;
#X connect 210 0 198 1;
#X connect 211 0 199 1;
#X connect 212 0 200 1;
#X connect 213 0 201 1;
#X connect 214 0 202 1;
#X connect 215 0 203 1;
#X connect 216 0 204 1;
#X connect 219 0 217 0;
#X connect 219 0 220 0;
#X connect 221 0 228 0;
#X connect 222 0 193 0;
#X connect 223 0 2 0;
#X connect 226 0 3 0;
#X connect 227 0 1 0;
#X connect 228 0 219 0;
#X restore 33 137 pd sound-lover;
#X obj 192 88 dsp;
#X obj 192 30 loadbang;
#X obj 192 50 delay 8000;
#X floatatom 192 108 5 0 0 0 - - -, f 5;
#X obj 192 70 tgl 15 0 empty empty empty 17 7 0 10 -262144 -1 -1 1
1;
#X text 31 58 @ printing studio show;
#X text 31 36 dianaband - 2014-11-29;
#X connect 4 0 7 0;
#X connect 5 0 6 0;
#X connect 6 0 8 0;
#X connect 8 0 4 0;
