#N canvas 514 22 432 562 10;
#X obj 21 172 soundfiler;
#X text -2 6 .anchor.;
#X floatatom 222 189 12 0 0 3 samplesize - -;
#X text 240 12 designed by D. Yi @ 2014 fall;
#X obj 21 45 inlet;
#X obj 141 73 loadbang;
#X obj 194 144 table \$0-playBuf 8820;
#X obj 21 459 tabread~ \$0-playBuf;
#X obj 204 333 inlet;
#X obj 21 499 *~;
#X obj 51 499 *~;
#X obj 330 482 inlet;
#X text 368 535 .anchor.;
#X obj 21 114 pack s f;
#X msg 21 144 read -resize \$1 \$2-playBuf;
#X obj 141 97 f \$0;
#X obj 21 426 vline~;
#X obj 114 228 samplerate~;
#X obj 99 281 /;
#X floatatom 114 256 7 0 0 1 samplerate - -;
#X obj 99 309 * 1000;
#X obj 54 337 pack f f;
#X obj 54 200 t a a b;
#X msg 54 365 set \$1 \$2;
#X msg 54 393 60699 1376.39;
#X msg 21 393 0 0;
#X obj 164 376 t b b;
#X obj 204 361 bng 15 250 50 0 empty empty empty 17 7 0 10 -262144
-1 -1;
#X text 60 45 1-soundfile name symbol;
#X obj 21 527 dac~;
#X obj 247 443 change;
#X text 247 531 1-end bng;
#X obj 247 465 sel 1;
#X obj 247 509 outlet;
#X text 245 330 2-play shot : bang;
#X obj 244 350 inlet;
#X obj 244 378 bng 15 250 50 0 empty empty empty 17 7 0 10 -262144
-1 -1;
#X text 285 347 3-stop/rewind : bang;
#X text 325 503 4-volume;
#X obj 177 465 zexy/avg~;
#X obj 177 443 zexy/==~;
#X connect 0 0 22 0;
#X connect 0 0 2 0;
#X connect 2 0 40 1;
#X connect 4 0 13 0;
#X connect 5 0 15 0;
#X connect 7 0 9 0;
#X connect 7 0 10 0;
#X connect 8 0 27 0;
#X connect 9 0 29 0;
#X connect 10 0 29 1;
#X connect 11 0 9 1;
#X connect 11 0 10 1;
#X connect 13 0 14 0;
#X connect 14 0 0 0;
#X connect 15 0 13 1;
#X connect 16 0 7 0;
#X connect 16 0 40 0;
#X connect 17 0 19 0;
#X connect 18 0 20 0;
#X connect 19 0 18 1;
#X connect 20 0 21 1;
#X connect 21 0 23 0;
#X connect 22 0 21 0;
#X connect 22 1 18 0;
#X connect 22 2 17 0;
#X connect 23 0 24 0;
#X connect 24 0 16 0;
#X connect 25 0 16 0;
#X connect 26 0 24 0;
#X connect 26 1 25 0;
#X connect 27 0 26 0;
#X connect 30 0 32 0;
#X connect 32 0 33 0;
#X connect 35 0 36 0;
#X connect 36 0 25 0;
#X connect 39 0 30 0;
#X connect 40 0 39 0;
