#N canvas 93 22 438 570 10;
#X obj 21 172 soundfiler;
#X text -2 6 .anchor.;
#X obj 21 527 dac~;
#X floatatom 110 189 12 0 0 3 samplesize - -;
#X text 240 12 designed by D. Yi @ 2014 fall;
#X obj 21 45 inlet;
#X obj 141 73 loadbang;
#X obj 194 144 table \$0-playBuf 8820;
#X obj 21 459 tabread~ \$0-playBuf;
#X obj 224 333 inlet;
#X obj 21 499 *~;
#X obj 51 499 *~;
#X obj 310 482 inlet;
#X text 368 535 .anchor.;
#X obj 21 114 pack s f;
#X msg 21 144 read -resize \$1 \$2-playBuf;
#X text 285 504 3-volume;
#X obj 141 97 f \$0;
#X obj 21 426 vline~;
#X obj 114 228 samplerate~;
#X obj 99 281 /;
#X floatatom 114 256 7 0 0 1 samplerate - -;
#X obj 99 309 * 1000;
#X obj 54 337 pack f f;
#X obj 54 200 t a a b;
#X msg 54 365 set \$1 \$2;
#X msg 54 393 119296 2705.12;
#X msg 21 393 0 0;
#X obj 164 376 t b b;
#X obj 224 361 bng 15 250 50 0 empty empty empty 17 7 0 10 -262144
-1 -1;
#X text 269 334 2-play shot : bang;
#X text 60 45 1-soundfile name symbol;
#X connect 0 0 24 0;
#X connect 0 0 3 0;
#X connect 5 0 14 0;
#X connect 6 0 17 0;
#X connect 8 0 10 0;
#X connect 8 0 11 0;
#X connect 9 0 29 0;
#X connect 10 0 2 0;
#X connect 11 0 2 1;
#X connect 12 0 10 1;
#X connect 12 0 11 1;
#X connect 14 0 15 0;
#X connect 15 0 0 0;
#X connect 17 0 14 1;
#X connect 18 0 8 0;
#X connect 19 0 21 0;
#X connect 20 0 22 0;
#X connect 21 0 20 1;
#X connect 22 0 23 1;
#X connect 23 0 25 0;
#X connect 24 0 23 0;
#X connect 24 1 20 0;
#X connect 24 2 19 0;
#X connect 25 0 26 0;
#X connect 26 0 18 0;
#X connect 27 0 18 0;
#X connect 28 0 26 0;
#X connect 28 1 27 0;
#X connect 29 0 28 0;
