#N canvas 67 316 443 286 10;
#X obj 79 218 print [to.writesf~];
#X text 376 256 .anchor.;
#X text 242 12 designed by D. Yi @ 2014 fall;
#X text 8 8 .anchor.;
#X obj 62 246 writesf~;
#X msg 222 229 start;
#X msg 267 229 stop;
#X obj 17 229 adc~;
#X msg 62 191 open \$1;
#X msg 62 163 symbol rec_000.wav;
#X obj 222 146 t b b;
#X msg 62 135 set symbol \$1;
#X obj 62 44 inlet;
#X obj 222 44 inlet;
#X obj 222 92 tgl 15 0 empty empty empty 17 7 0 10 -262144 -1 -1 0
1;
#X text 228 67 2-recording start/stop tgl;
#X obj 222 118 route 1 0;
#X text 68 67 1-soundfile name symbol;
#X connect 5 0 4 0;
#X connect 6 0 4 0;
#X connect 7 0 4 0;
#X connect 8 0 0 0;
#X connect 8 0 4 0;
#X connect 9 0 8 0;
#X connect 10 0 5 0;
#X connect 10 1 9 0;
#X connect 11 0 9 0;
#X connect 12 0 11 0;
#X connect 13 0 14 0;
#X connect 14 0 16 0;
#X connect 16 0 10 0;
#X connect 16 1 6 0;
