#N canvas 474 131 236 402 10;
#X floatatom 36 61 5 0 0 0 - - -;
#X obj 87 175 / 10;
#X floatatom 87 219 5 0 0 0 - - -;
#X floatatom 132 197 5 0 0 0 - - -;
#X obj 132 175 % 10;
#X obj 87 197 int;
#X floatatom 36 156 5 0 0 0 - - -;
#X floatatom 87 134 5 0 0 0 - - -;
#X obj 36 134 int;
#X obj 36 112 / 100;
#X obj 87 112 % 100;
#X obj 36 238 pack f f f;
#X obj 87 153 t a a;
#X obj 36 90 t a a;
#X msg 36 260 symbol \$1\$2\$3;
#X obj 36 366 outlet;
#X obj 36 338 list trim;
#X obj 36 310 list prepend symbol;
#X text 5 5 .anchor.;
#X obj 36 33 inlet;
#X text 167 374 .anchor.;
#X text 86 87 some fancy file naming;
#X obj 36 282 makefilename \$1;
#X connect 0 0 13 0;
#X connect 1 0 5 0;
#X connect 2 0 11 1;
#X connect 3 0 11 2;
#X connect 4 0 3 0;
#X connect 5 0 2 0;
#X connect 6 0 11 0;
#X connect 7 0 12 0;
#X connect 8 0 6 0;
#X connect 9 0 8 0;
#X connect 10 0 7 0;
#X connect 11 0 14 0;
#X connect 12 0 1 0;
#X connect 12 1 4 0;
#X connect 13 0 9 0;
#X connect 13 1 10 0;
#X connect 14 0 22 0;
#X connect 16 0 15 0;
#X connect 17 0 16 0;
#X connect 19 0 0 0;
#X connect 22 0 17 0;
