#N canvas 315 22 316 165 10;
#X text 8 7 .anchor.;
#X text 252 136 .anchor.;
#N canvas 678 22 490 615 arduino-firmata 1;
#X text 426 586 .anchor.;
#X text 5 2 .anchor.;
#X msg 30 166 devices;
#X obj 20 34 loadbang;
#X obj 20 58 delay 4000;
#X text 72 121 for test @ Mac;
#X text 72 81 for real @ RPi;
#X obj 20 200 arduino;
#X obj 20 424 route analog digital;
#X msg 283 183 info;
#X obj 59 223 route open;
#X obj 59 246 route 1;
#X obj 283 263 print [arduino]wasn't_opend;
#X obj 283 240 tgl 15 0 empty empty isopend? 17 7 0 10 -262144 -1 -1
1 1;
#X msg 86 166 close;
#N canvas 1074 50 190 266 pinsetup 1;
#X obj 33 61 t b b;
#X text 69 83 input pins;
#X text 40 153 pull-ups;
#X text 4 3 .anchor.;
#X text 121 234 .anchor.;
#X obj 33 33 inlet;
#X obj 33 227 outlet;
#X msg 33 199 digital \$1 1;
#X msg 60 106 14;
#X msg 33 176 14;
#X msg 60 129 pinMode \$1 analog;
#X connect 0 1 8 0;
#X connect 5 0 0 0;
#X connect 7 0 6 0;
#X connect 8 0 10 0;
#X connect 9 0 7 0;
#X connect 10 0 6 0;
#X restore 59 269 pd pinsetup;
#X obj 283 119 bng 15 250 50 0 empty empty empty 17 7 0 10 -262144
-1 -1;
#X obj 20 389 spigot;
#X obj 59 363 tgl 15 0 empty empty empty 17 7 0 10 -262144 -1 -1 1
1;
#X obj 283 286 print [arduino]pinsetup_msg.;
#X obj 283 149 delay 2000;
#X msg 59 339 1;
#X obj 59 293 bng 15 250 50 0 empty empty empty 17 7 0 10 -262144 -1
-1;
#X obj 59 315 delay 2000;
#X text 276 468 dispatching commands;
#X msg 20 102 devicename /dev/ttyUSB0;
#X msg 30 138 devicename /dev/tty.usbserial-14ANP190;
#X obj 20 452 route 0;
#X floatatom 20 508 5 0 0 0 - - -;
#X obj 20 480 resmpl 50;
#X obj 20 535 s t0;
#X obj 205 389 max 0;
#X floatatom 205 417 5 0 0 0 - - -;
#X obj 205 494 * 1000;
#X obj 205 550 ftom;
#X floatatom 205 577 5 0 0 0 - - -;
#X obj 205 522 + 220;
#X obj 205 361 - 0.31;
#X obj 205 444 route 0;
#X obj 135 542 dac~;
#X obj 135 514 osc~ 440;
#X msg 148 475 0;
#X obj 258 568 mtof;
#X floatatom 301 545 5 0 0 0 - - -;
#X obj 258 544 int;
#X connect 2 0 7 0;
#X connect 3 0 4 0;
#X connect 4 0 25 0;
#X connect 7 0 17 0;
#X connect 7 1 10 0;
#X connect 8 0 27 0;
#X connect 9 0 7 0;
#X connect 10 0 11 0;
#X connect 10 0 13 0;
#X connect 11 0 15 0;
#X connect 11 1 12 0;
#X connect 14 0 7 0;
#X connect 15 0 7 0;
#X connect 15 0 19 0;
#X connect 15 0 22 0;
#X connect 16 0 20 0;
#X connect 17 0 8 0;
#X connect 18 0 17 1;
#X connect 20 0 9 0;
#X connect 21 0 18 0;
#X connect 22 0 23 0;
#X connect 23 0 21 0;
#X connect 25 0 7 0;
#X connect 25 0 16 0;
#X connect 26 0 7 0;
#X connect 26 0 16 0;
#X connect 27 0 29 0;
#X connect 28 0 30 0;
#X connect 28 0 37 0;
#X connect 29 0 28 0;
#X connect 31 0 32 0;
#X connect 32 0 38 0;
#X connect 33 0 36 0;
#X connect 34 0 35 0;
#X connect 35 0 44 0;
#X connect 36 0 34 0;
#X connect 37 0 31 0;
#X connect 38 0 41 0;
#X connect 38 1 33 0;
#X connect 40 0 39 0;
#X connect 41 0 40 0;
#X connect 42 0 43 0;
#X connect 42 0 40 0;
#X connect 44 0 42 0;
#X restore 43 87 pd arduino-firmata;
#N canvas 462 288 730 291 sound-lover 1;
#X obj 25 42 loadbang;
#X obj 25 130 filepick rec_%s.wav;
#X obj 25 191 soundshot;
#X obj 76 76 loadbang;
#X text 10 8 .anchor.;
#X text 484 255 .anchor.;
#X msg 25 76 1;
#X msg 76 158 1;
#X obj 25 229 spigot;
#X obj 112 214 tgl 15 0 empty \$0-play-latch-one r:0-play-latch-one
17 7 0 10 -262144 -1 -1 0 1;
#X obj 352 214 tgl 15 0 empty \$0-play-latch-two r:0-play-latch-two
17 7 0 10 -262144 -1 -1 0 1;
#X obj 112 174 sel 1;
#X obj 265 42 loadbang;
#X obj 265 130 filepick rec_%s.wav;
#X obj 265 191 soundshot;
#X obj 316 76 loadbang;
#X msg 316 158 1;
#X obj 265 247 spigot;
#X obj 352 174 sel 1;
#X msg 265 76 2;
#X obj 611 17 bng 15 250 50 0 empty empty empty 17 7 0 10 -262144 -1
-1;
#X obj 614 40 metro 200;
#X floatatom 617 91 5 0 0 0 - - -;
#X msg 598 123 200;
#X obj 620 154 +;
#X obj 630 115 t b a;
#X floatatom 620 180 5 0 0 0 - - -;
#X obj 657 143 * 100;
#X obj 615 65 random 4;
#X text 446 27 example of changing rhythm;
#X text 464 47 with loop delay;
#X obj 265 219 del 200;
#X connect 0 0 6 0;
#X connect 1 0 2 0;
#X connect 2 0 8 0;
#X connect 3 0 7 0;
#X connect 6 0 1 0;
#X connect 7 0 2 3;
#X connect 8 0 2 1;
#X connect 9 0 8 1;
#X connect 9 0 11 0;
#X connect 10 0 17 1;
#X connect 10 0 18 0;
#X connect 11 0 2 1;
#X connect 11 1 2 2;
#X connect 12 0 19 0;
#X connect 13 0 14 0;
#X connect 14 0 31 0;
#X connect 15 0 16 0;
#X connect 16 0 14 3;
#X connect 17 0 14 1;
#X connect 18 0 14 1;
#X connect 18 1 14 2;
#X connect 19 0 13 0;
#X connect 20 0 21 0;
#X connect 21 0 28 0;
#X connect 22 0 25 0;
#X connect 23 0 24 0;
#X connect 25 0 23 0;
#X connect 25 1 27 0;
#X connect 26 0 31 1;
#X connect 27 0 24 1;
#X connect 28 0 22 0;
#X connect 31 0 17 0;
#X restore 43 107 pd sound-lover;
#X obj 202 88 dsp;
#X obj 202 30 loadbang;
#X obj 202 50 delay 8000;
#X floatatom 202 108 5 0 0 0 - - -;
#X obj 202 70 tgl 15 0 empty empty empty 17 7 0 10 -262144 -1 -1 1
1;
#X text 41 58 @ printing studio show;
#X text 41 36 dianaband - 2014-11-29;
#X connect 4 0 7 0;
#X connect 5 0 6 0;
#X connect 6 0 8 0;
#X connect 8 0 4 0;
