#N canvas 285 22 189 315 10;
#X obj 39 179 metro \$1;
#X obj 39 67 loadbang;
#X obj 72 39 inlet;
#X obj 39 263 outlet;
#X obj 114 123 inlet;
#X obj 39 123 != 0;
#X obj 39 151 sel 1;
#X obj 39 95 \$1;
#X obj 39 207 list 0;
#X text 11 9 .anchor.;
#X text 122 289 .anchor.;
#X obj 39 235 list trim;
#X connect 0 0 8 0;
#X connect 1 0 7 0;
#X connect 2 0 8 1;
#X connect 4 0 0 1;
#X connect 5 0 6 0;
#X connect 6 0 0 0;
#X connect 7 0 5 0;
#X connect 8 0 11 0;
#X connect 11 0 3 0;
