#N canvas 458 28 279 268 10;
#X text 8 7 .anchor.;
#X text 212 234 .anchor.;
#X obj 192 88 dsp;
#X obj 192 30 loadbang;
#X obj 192 50 delay 8000;
#X floatatom 192 108 5 0 0 0 - - -;
#X obj 192 70 tgl 15 0 empty empty empty 17 7 0 10 -262144 -1 -1 1
1;
#X text 31 58 @ printing studio show;
#X text 31 36 dianaband - 2014-11-29;
#N canvas 719 22 490 702 arduino-firmata 0;
#X text 426 676 .anchor.;
#X text 5 2 .anchor.;
#X msg 30 166 devices;
#X obj 20 34 loadbang;
#X obj 20 58 delay 4000;
#X text 162 121 for test @ Mac;
#X text 162 81 for real @ RPi;
#X obj 20 200 arduino;
#X obj 20 424 route analog digital;
#X msg 283 183 info;
#X obj 59 223 route open;
#X obj 59 246 route 1;
#X obj 283 263 print [arduino]wasn't_opend;
#X obj 283 240 tgl 15 0 empty empty isopend? 17 7 0 10 -262144 -1 -1
0 1;
#X msg 86 166 close;
#N canvas 888 388 190 266 pinsetup 0;
#X msg 60 129 pinMode \$1 input;
#X obj 33 61 t b b;
#X text 69 83 input pins;
#X text 40 153 pull-ups;
#X text 4 3 .anchor.;
#X text 121 234 .anchor.;
#X obj 33 33 inlet;
#X obj 33 227 outlet;
#X msg 33 199 digital \$1 1;
#X msg 60 106 2 \, 3 \, 4 \, 5 \, 6 \, 7;
#X msg 33 176 2 \, 3 \, 4 \, 5 \, 6 \, 7;
#X connect 0 0 7 0;
#X connect 1 0 10 0;
#X connect 1 1 9 0;
#X connect 6 0 1 0;
#X connect 8 0 7 0;
#X connect 9 0 0 0;
#X connect 10 0 8 0;
#X restore 59 269 pd pinsetup;
#X obj 283 119 bng 15 250 50 0 empty empty empty 17 7 0 10 -262144
-1 -1;
#X obj 20 389 spigot;
#X obj 59 363 tgl 15 0 empty empty empty 17 7 0 10 -262144 -1 -1 0
1;
#X obj 283 286 print [arduino]pinsetup_msg.;
#X obj 283 149 delay 2000;
#X msg 59 339 1;
#X obj 59 293 bng 15 250 50 0 empty empty empty 17 7 0 10 -262144 -1
-1;
#X obj 59 315 delay 2000;
#X text 276 468 dispatching commands;
#X floatatom 128 538 5 0 0 0 - - -;
#X floatatom 78 538 5 0 0 0 - - -;
#X msg 20 102 devicename /dev/ttyUSB0;
#X obj 78 563 tgl 15 0 \$0-play-latch-five empty s:0-play-latch-five
17 7 0 10 -262144 -1 -1 0 1;
#X obj 128 583 tgl 15 0 \$0-play-latch-six empty s:0-play-latch-six
17 7 0 10 -262144 -1 -1 0 1;
#X obj 78 452 resmpl 50;
#X obj 128 510 change;
#X obj 78 510 change;
#X obj 78 480 route 2 3 4 5 6 7;
#X floatatom 178 538 5 0 0 0 - - -;
#X obj 178 603 tgl 15 0 \$0-play-latch-seven empty s:0-play-latch-seven
17 7 0 10 -262144 -1 -1 0 1;
#X obj 178 510 change;
#X floatatom 228 538 5 0 0 0 - - -;
#X obj 228 623 tgl 15 0 \$0-play-latch-eight empty s:0-play-latch-eight
17 7 0 10 -262144 -1 -1 0 1;
#X obj 228 510 change;
#X floatatom 278 538 5 0 0 0 - - -;
#X obj 278 510 change;
#X floatatom 328 538 5 0 0 0 - - -;
#X obj 328 510 change;
#X msg 30 138 devicename /dev/tty.usbserial-14ANP190;
#X obj 98 74 spigot;
#X obj 161 37 loadbang;
#X msg 161 57 1;
#X msg 131 54 0;
#X obj 98 34 t b a;
#X text 220 44 automatic one more trial..;
#X connect 2 0 7 0;
#X connect 3 0 4 0;
#X connect 4 0 27 0;
#X connect 7 0 17 0;
#X connect 7 1 10 0;
#X connect 8 1 30 0;
#X connect 9 0 7 0;
#X connect 10 0 11 0;
#X connect 10 0 13 0;
#X connect 11 0 15 0;
#X connect 11 1 12 0;
#X connect 11 1 49 0;
#X connect 14 0 7 0;
#X connect 15 0 7 0;
#X connect 15 0 19 0;
#X connect 15 0 22 0;
#X connect 16 0 20 0;
#X connect 17 0 8 0;
#X connect 18 0 17 1;
#X connect 20 0 9 0;
#X connect 21 0 18 0;
#X connect 22 0 23 0;
#X connect 23 0 21 0;
#X connect 25 0 29 0;
#X connect 26 0 28 0;
#X connect 27 0 7 0;
#X connect 27 0 16 0;
#X connect 30 0 33 0;
#X connect 31 0 25 0;
#X connect 32 0 26 0;
#X connect 33 0 32 0;
#X connect 33 1 31 0;
#X connect 33 2 36 0;
#X connect 33 3 39 0;
#X connect 33 4 41 0;
#X connect 33 5 43 0;
#X connect 34 0 35 0;
#X connect 36 0 34 0;
#X connect 37 0 38 0;
#X connect 39 0 37 0;
#X connect 41 0 40 0;
#X connect 43 0 42 0;
#X connect 44 0 7 0;
#X connect 44 0 16 0;
#X connect 45 0 44 0;
#X connect 46 0 47 0;
#X connect 47 0 45 1;
#X connect 48 0 45 1;
#X connect 49 0 48 0;
#X connect 49 1 45 0;
#X restore 33 117 pd arduino-firmata;
#N canvas 132 210 976 286 sound-lover 0;
#X obj 25 42 loadbang;
#X obj 25 130 filepick rec_%s.wav;
#X obj 25 191 soundshot;
#X obj 76 76 loadbang;
#X text 10 8 .anchor.;
#X text 914 255 .anchor.;
#X msg 76 158 1;
#X obj 25 229 spigot;
#X obj 112 214 tgl 15 0 empty \$0-play-latch-five r:0-play-latch-five
17 7 0 10 -262144 -1 -1 0 1;
#X obj 352 214 tgl 15 0 empty \$0-play-latch-six r:0-play-latch-six
17 7 0 10 -262144 -1 -1 0 1;
#X obj 112 174 sel 1;
#X obj 265 42 loadbang;
#X obj 265 130 filepick rec_%s.wav;
#X obj 265 191 soundshot;
#X obj 316 76 loadbang;
#X msg 316 158 1;
#X obj 265 227 spigot;
#X obj 352 174 sel 1;
#X obj 582 214 tgl 15 0 empty \$0-play-latch-seven r:0-play-latch-seven
17 7 0 10 -262144 -1 -1 0 1;
#X obj 495 42 loadbang;
#X obj 495 130 filepick rec_%s.wav;
#X obj 495 191 soundshot;
#X obj 546 76 loadbang;
#X obj 495 227 spigot;
#X obj 582 174 sel 1;
#X obj 822 214 tgl 15 0 empty \$0-play-latch-eight r:0-play-latch-eight
17 7 0 10 -262144 -1 -1 0 1;
#X obj 735 42 loadbang;
#X obj 735 130 filepick rec_%s.wav;
#X obj 735 191 soundshot;
#X obj 786 76 loadbang;
#X msg 786 158 1;
#X obj 735 227 spigot;
#X obj 822 174 sel 1;
#X msg 25 76 5;
#X msg 265 76 6;
#X msg 495 76 7;
#X msg 735 76 8;
#X msg 546 158 0.35;
#X connect 0 0 33 0;
#X connect 1 0 2 0;
#X connect 2 0 7 0;
#X connect 3 0 6 0;
#X connect 6 0 2 3;
#X connect 7 0 2 1;
#X connect 8 0 7 1;
#X connect 8 0 10 0;
#X connect 9 0 16 1;
#X connect 9 0 17 0;
#X connect 10 0 2 1;
#X connect 10 1 2 2;
#X connect 11 0 34 0;
#X connect 12 0 13 0;
#X connect 13 0 16 0;
#X connect 14 0 15 0;
#X connect 15 0 13 3;
#X connect 16 0 13 1;
#X connect 17 0 13 1;
#X connect 17 1 13 2;
#X connect 18 0 23 1;
#X connect 18 0 24 0;
#X connect 19 0 35 0;
#X connect 20 0 21 0;
#X connect 21 0 23 0;
#X connect 22 0 37 0;
#X connect 23 0 21 1;
#X connect 24 0 21 1;
#X connect 24 1 21 2;
#X connect 25 0 31 1;
#X connect 25 0 32 0;
#X connect 26 0 36 0;
#X connect 27 0 28 0;
#X connect 28 0 31 0;
#X connect 29 0 30 0;
#X connect 30 0 28 3;
#X connect 31 0 28 1;
#X connect 32 0 28 1;
#X connect 32 1 28 2;
#X connect 33 0 1 0;
#X connect 34 0 12 0;
#X connect 35 0 20 0;
#X connect 36 0 27 0;
#X connect 37 0 21 3;
#X restore 33 137 pd sound-lover;
#X text 36 95 for left side;
#X connect 2 0 5 0;
#X connect 3 0 4 0;
#X connect 4 0 6 0;
#X connect 6 0 2 0;
