#N canvas 529 51 316 165 10;
#X text 8 7 .anchor.;
#X text 252 136 .anchor.;
#N canvas 261 22 488 702 arduino-firmata 0;
#X text 426 616 .anchor.;
#X text 5 2 .anchor.;
#X obj 88 603 bng 15 250 50 0 \$0-play-shot-one empty s:0-play-shot-one
17 7 0 10 -262144 -1 -1;
#X obj 88 575 route 1 0;
#X obj 228 575 route 1 0;
#X msg 30 166 devices;
#X obj 20 34 loadbang;
#X obj 20 58 delay 4000;
#X text 72 121 for test @ Mac;
#X text 72 81 for real @ RPi;
#X obj 20 200 arduino;
#X obj 20 424 route analog digital;
#X msg 283 183 info;
#X obj 59 223 route open;
#X obj 59 246 route 1;
#X obj 283 263 print [arduino]wasn't_opend;
#X msg 30 138 devicename /dev/tty.usbserial-10GP0125;
#X obj 283 240 tgl 15 0 empty empty isopend? 17 7 0 10 -262144 -1 -1
1 1;
#X msg 86 166 close;
#N canvas 888 388 190 266 pinsetup 0;
#X msg 60 129 pinMode \$1 input;
#X obj 33 61 t b b;
#X text 69 83 input pins;
#X text 40 153 pull-ups;
#X msg 33 176 2 \, 3 \, 4 \, 5;
#X msg 60 106 2 \, 3 \, 4 \, 5;
#X text 4 3 .anchor.;
#X text 121 234 .anchor.;
#X obj 33 33 inlet;
#X obj 33 227 outlet;
#X msg 33 199 digital \$1 1;
#X connect 0 0 9 0;
#X connect 1 0 4 0;
#X connect 1 1 5 0;
#X connect 4 0 10 0;
#X connect 5 0 0 0;
#X connect 8 0 1 0;
#X connect 10 0 9 0;
#X restore 59 269 pd pinsetup;
#X obj 283 119 bng 15 250 50 0 empty empty empty 17 7 0 10 -262144
-1 -1;
#X obj 20 389 spigot;
#X obj 59 363 tgl 15 0 empty empty empty 17 7 0 10 -262144 -1 -1 1
1;
#X obj 283 286 print [arduino]pinsetup_msg.;
#X obj 283 149 delay 2000;
#X msg 59 339 1;
#X obj 59 293 bng 15 250 50 0 empty empty empty 17 7 0 10 -262144 -1
-1;
#X obj 59 315 delay 2000;
#X obj 228 603 bng 15 250 50 0 \$0-play-shot-two empty s:0-play-shot-two
17 7 0 10 -262144 -1 -1;
#X text 276 468 dispatching commands;
#X floatatom 228 548 5 0 0 0 - - -;
#X floatatom 88 548 5 0 0 0 - - -;
#X msg 20 102 devicename /dev/ttyUSB0;
#X msg 88 629 play-shot-one;
#X msg 228 629 play-shot-two;
#X obj 360 646 print;
#X obj 88 480 route 2 3;
#X obj 88 452 resmpl 50;
#X obj 228 520 change;
#X obj 88 520 change;
#X connect 2 0 33 0;
#X connect 3 0 2 0;
#X connect 4 0 28 0;
#X connect 5 0 10 0;
#X connect 6 0 7 0;
#X connect 7 0 32 0;
#X connect 10 0 21 0;
#X connect 10 1 13 0;
#X connect 11 1 37 0;
#X connect 12 0 10 0;
#X connect 13 0 14 0;
#X connect 13 0 17 0;
#X connect 14 0 19 0;
#X connect 14 1 15 0;
#X connect 16 0 10 0;
#X connect 16 0 20 0;
#X connect 18 0 10 0;
#X connect 19 0 10 0;
#X connect 19 0 23 0;
#X connect 19 0 26 0;
#X connect 20 0 24 0;
#X connect 21 0 11 0;
#X connect 22 0 21 1;
#X connect 24 0 12 0;
#X connect 25 0 22 0;
#X connect 26 0 27 0;
#X connect 27 0 25 0;
#X connect 28 0 34 0;
#X connect 30 0 4 0;
#X connect 31 0 3 0;
#X connect 32 0 10 0;
#X connect 32 0 20 0;
#X connect 33 0 35 0;
#X connect 34 0 35 0;
#X connect 36 0 39 0;
#X connect 36 1 38 0;
#X connect 37 0 36 0;
#X connect 38 0 30 0;
#X connect 39 0 31 0;
#X restore 43 87 pd arduino-firmata;
#N canvas 798 51 413 307 sound-lover 0;
#X obj 25 42 loadbang;
#X obj 25 130 filepick rec_%s.wav;
#X obj 25 251 soundshot;
#X obj 76 76 loadbang;
#X text 10 8 .anchor.;
#X text 344 275 .anchor.;
#X msg 25 76 1;
#X obj 42 104 bng 15 250 50 0 empty \$0-play-shot-one r:0-play-shot-one
17 7 0 10 -262144 -1 -1;
#X obj 222 104 bng 15 250 50 0 empty \$0-play-shot-two r:0-play-shot-two
17 7 0 10 -262144 -1 -1;
#X obj 205 42 loadbang;
#X obj 205 130 filepick rec_%s.wav;
#X obj 205 251 soundshot;
#X obj 256 76 loadbang;
#X msg 205 76 2;
#X msg 76 218 1;
#X msg 256 218 1;
#X connect 0 0 6 0;
#X connect 1 0 2 0;
#X connect 3 0 14 0;
#X connect 6 0 1 0;
#X connect 7 0 2 1;
#X connect 8 0 11 1;
#X connect 9 0 13 0;
#X connect 10 0 11 0;
#X connect 12 0 15 0;
#X connect 13 0 10 0;
#X connect 14 0 2 3;
#X connect 15 0 11 3;
#X restore 43 107 pd sound-lover;
#X obj 202 88 dsp;
#X obj 202 30 loadbang;
#X obj 202 50 delay 8000;
#X floatatom 202 108 5 0 0 0 - - -;
#X obj 202 70 tgl 15 0 empty empty empty 17 7 0 10 -262144 -1 -1 1
1;
#X text 41 58 @ printing studio show;
#X text 41 36 dianaband - 2014-11-29;
#X connect 4 0 7 0;
#X connect 5 0 6 0;
#X connect 6 0 8 0;
#X connect 8 0 4 0;
