#N canvas 547 22 438 571 10;
#X obj 21 172 soundfiler;
#X text -2 6 .anchor.;
#X obj 21 403 phasor~;
#X obj 21 527 dac~;
#X floatatom 110 189 12 0 0 3 samplesize - -;
#X obj 21 228 samplerate~;
#X obj 21 291 /;
#X floatatom 21 256 7 0 0 1 samplerate - -;
#X floatatom 21 319 5 0 0 1 playback_speed_x1 - -;
#X obj 21 431 *~;
#X floatatom 21 378 5 0 0 0 - - -;
#X obj 234 416 metro 200;
#X floatatom 234 472 5 0 0 0 - - -;
#X text 240 12 designed by D. Yi @ 2014 fall;
#X obj 234 444 v \$0-playspeed_x1;
#X obj 32 342 v \$0-playspeed_x1;
#X obj 255 344 v \$0-playspeed_x1;
#X obj 21 45 inlet;
#X obj 141 73 loadbang;
#X obj 194 144 table \$0-playBuf 8820;
#X obj 21 459 tabread~ \$0-playBuf;
#X obj 228 288 inlet;
#X obj 21 499 *~;
#X obj 51 499 *~;
#X obj 309 482 inlet;
#X obj 228 361 *;
#X text 368 535 .anchor.;
#X obj 21 114 pack s f;
#X msg 21 144 read -resize \$1 \$2-playBuf;
#X text 273 289 2-play speed : 1 for x1;
#X text 285 504 3-volume;
#X obj 228 316 t a b;
#X obj 234 390 tgl 15 0 empty empty empty 17 7 0 10 -262144 -1 -1 0
1;
#X obj 141 97 f \$0;
#X obj 21 200 t b a;
#X text 60 45 1-soundfile name symbol;
#X connect 0 0 34 0;
#X connect 0 0 4 0;
#X connect 2 0 9 0;
#X connect 4 0 9 1;
#X connect 5 0 7 0;
#X connect 6 0 8 0;
#X connect 7 0 6 0;
#X connect 8 0 10 0;
#X connect 8 0 15 0;
#X connect 9 0 20 0;
#X connect 10 0 2 0;
#X connect 11 0 14 0;
#X connect 14 0 12 0;
#X connect 16 0 25 1;
#X connect 17 0 27 0;
#X connect 18 0 33 0;
#X connect 20 0 22 0;
#X connect 20 0 23 0;
#X connect 21 0 31 0;
#X connect 22 0 3 0;
#X connect 23 0 3 1;
#X connect 24 0 22 1;
#X connect 24 0 23 1;
#X connect 25 0 10 0;
#X connect 27 0 28 0;
#X connect 28 0 0 0;
#X connect 31 0 25 0;
#X connect 31 1 16 0;
#X connect 32 0 11 0;
#X connect 33 0 27 1;
#X connect 34 0 5 0;
#X connect 34 1 6 1;
